<svg xmlns="http://www.w3.org/2000/svg" xmlns:xlink="http://www.w3.org/1999/xlink">
<symbol viewBox="0 0 50 50" id="sun">
<title>Sun</title>
<path d="M33.8624 16.1376C31.6138 13.8889 28.4392 12.4339 25 12.4339C21.5608 12.4339 18.3862 13.8228 16.1376 16.1376C13.8889 18.3862 12.4339 21.5608 12.4339 25C12.4339 28.4392 13.8889 31.6138 16.1376 33.8624C18.3862 36.1111 21.5608 37.5661 25 37.5661C28.4392 37.5661 31.6138 36.1773 33.8624 33.8624C36.1111 31.6138 37.5661 28.4392 37.5661 25C37.5661 21.5608 36.1773 18.3862 33.8624 16.1376ZM31.4815 31.4815C29.828 33.1349 27.5132 34.127 25 34.127C22.4868 34.127 20.172 33.1349 18.5185 31.4815C16.8651 29.828 15.873 27.5132 15.873 25C15.873 22.4868 16.8651 20.172 18.5185 18.5185C20.172 16.8651 22.4868 15.873 25 15.873C27.5132 15.873 29.828 16.8651 31.4815 18.5185C33.1349 20.172 34.127 22.4868 34.127 25C34.127 27.5132 33.1349 29.828 31.4815 31.4815Z" />
<path d="M48.2804 23.2804H43.1878C42.2619 23.2804 41.4683 24.0741 41.4683 25C41.4683 25.9259 42.2619 26.7196 43.1878 26.7196H48.2804C49.2064 26.7196 50 25.9259 50 25C50 24.0741 49.2064 23.2804 48.2804 23.2804Z"/>
<path d="M25 41.4683C24.0741 41.4683 23.2804 42.2619 23.2804 43.1878V48.2804C23.2804 49.2064 24.0741 50 25 50C25.9259 50 26.7196 49.2064 26.7196 48.2804V43.1878C26.7196 42.2619 25.9259 41.4683 25 41.4683Z"/>
<path d="M42.6587 40.2778L39.0212 36.6402C38.4259 35.9788 37.3016 35.9788 36.6402 36.6402C35.9788 37.3016 35.9788 38.3598 36.6402 39.0212L40.2778 42.6587C40.9392 43.3201 41.9974 43.3201 42.6587 42.6587C43.3201 41.9974 43.3201 40.9392 42.6587 40.2778Z"/>
<path d="M25 0C24.0741 0 23.2804 0.793651 23.2804 1.71958V6.81217C23.2804 7.7381 24.0741 8.53175 25 8.53175C25.9259 8.53175 26.7196 7.7381 26.7196 6.81217V1.71958C26.7196 0.793651 25.9259 0 25 0Z"/>
<path d="M42.7249 7.34127C42.0635 6.67989 41.0053 6.67989 40.3439 7.34127L36.7064 10.9788C36.045 11.6402 36.045 12.6984 36.7064 13.3598C37.3016 14.0212 38.4259 14.0212 39.0873 13.3598L42.7249 9.72222C43.3862 9.06085 43.3862 8.00265 42.7249 7.34127Z"/>
<path d="M6.81217 23.2804H1.71958C0.793651 23.2804 0 24.0741 0 25C0 25.9259 0.727513 26.7196 1.71958 26.7196H6.81217C7.7381 26.7196 8.53175 25.9259 8.53175 25C8.53175 24.0741 7.7381 23.2804 6.81217 23.2804Z"/>
<path d="M13.2937 36.6402C12.6984 35.9788 11.5741 35.9788 10.9127 36.6402L7.27513 40.2778C6.61376 40.9392 6.61376 41.9974 7.27513 42.6587C7.93651 43.3201 8.99471 43.3201 9.65609 42.6587L13.2937 39.0212C13.955 38.3598 13.955 37.3016 13.2937 36.6402Z"/>
<path d="M13.2937 10.9788L9.65609 7.34127C8.99471 6.67989 7.93651 6.67989 7.27513 7.34127C6.61376 8.00265 6.61376 9.06085 7.27513 9.72222L10.9127 13.3598C11.5741 14.0212 12.6323 14.0212 13.2937 13.3598C13.955 12.6984 13.955 11.6402 13.2937 10.9788Z"/>
</symbol>
 
<symbol viewBox="0 0 50 50" id="moon">
<title>Moon</title>
<path d="M48.818 28.4551C48.3069 28.3268 47.7957 28.4551 47.3484 28.7757C45.687 30.1864 43.7701 31.3406 41.6615 32.11C39.6806 32.8795 37.5081 33.2642 35.2078 33.2642C30.032 33.2642 25.3036 31.1482 21.917 27.7497C18.5304 24.3513 16.4218 19.6063 16.4218 14.4124C16.4218 12.2323 16.8052 10.1163 17.4441 8.19261C18.147 6.14071 19.1694 4.28118 20.5112 2.67814C21.0863 1.9728 20.9585 0.946848 20.2557 0.369752C19.8084 0.0491434 19.2972 -0.0791002 18.786 0.0491434C13.3547 1.52394 8.62623 4.79415 5.23963 9.15443C1.98084 13.4506 0 18.7727 0 24.6078C0 31.5971 2.81151 37.9451 7.41216 42.5619C12.0128 47.1786 18.3387 50 25.3036 50C31.1822 50 36.6135 47.9481 40.9586 44.5497C45.3676 41.0871 48.5625 36.1497 49.9043 30.507C50.2238 29.5452 49.7126 28.6475 48.818 28.4551ZM39.0417 41.8565C35.3356 44.8061 30.6071 46.6015 25.4314 46.6015C19.3611 46.6015 13.8659 44.1008 9.90419 40.1253C5.94251 36.1497 3.45049 30.6352 3.45049 24.5437C3.45049 19.478 5.11184 14.8613 7.98725 11.1422C9.96808 8.57734 12.4601 6.46132 15.3355 4.98652C15.016 5.69186 14.6965 6.3972 14.4409 7.16666C13.6103 9.47504 13.2269 11.9117 13.2269 14.4765C13.2269 20.5681 15.7189 26.1467 19.6806 30.1223C23.6422 34.0978 29.2014 36.5986 35.2717 36.5986C37.9554 36.5986 40.5113 36.1497 42.8755 35.252C43.7062 34.9314 44.5369 34.6108 45.3037 34.226C43.7701 37.1756 41.6615 39.8046 39.0417 41.8565Z"/>
</symbol>

<symbol viewBox="0 0 60 60" id="menu">
<title>Menu</title>
<path d="M20.7178 0H6.93844C3.11262 0 0 3.11262 0 6.93844V20.7178C0 24.5436 3.11262 27.6562 6.93844 27.6562H20.7178C24.5436 27.6562 27.6562 24.5436 27.6562 20.7178V6.93844C27.6562 3.11262 24.5436 0 20.7178 0ZM22.9688 20.7178C22.9688 21.9589 21.9589 22.9688 20.7178 22.9688H6.93844C5.6973 22.9688 4.6875 21.9589 4.6875 20.7178V6.93844C4.6875 5.6973 5.6973 4.6875 6.93844 4.6875H20.7178C21.9589 4.6875 22.9688 5.6973 22.9688 6.93844V20.7178Z"/>
<path d="M52.9688 0H39.375C35.498 0 32.3438 3.15422 32.3438 7.03125V20.625C32.3438 24.502 35.498 27.6562 39.375 27.6562H52.9688C56.8458 27.6562 60 24.502 60 20.625V7.03125C60 3.15422 56.8458 0 52.9688 0ZM55.3125 20.625C55.3125 21.9173 54.2611 22.9688 52.9688 22.9688H39.375C38.0827 22.9688 37.0312 21.9173 37.0312 20.625V7.03125C37.0312 5.73891 38.0827 4.6875 39.375 4.6875H52.9688C54.2611 4.6875 55.3125 5.73891 55.3125 7.03125V20.625Z" />
<path d="M20.7178 32.3438H6.93844C3.11262 32.3438 0 35.4564 0 39.2822V53.0616C0 56.8874 3.11262 60 6.93844 60H20.7178C24.5436 60 27.6562 56.8874 27.6562 53.0616V39.2822C27.6562 35.4564 24.5436 32.3438 20.7178 32.3438ZM22.9688 53.0616C22.9688 54.3027 21.9589 55.3125 20.7178 55.3125H6.93844C5.6973 55.3125 4.6875 54.3027 4.6875 53.0616V39.2822C4.6875 38.0411 5.6973 37.0312 6.93844 37.0312H20.7178C21.9589 37.0312 22.9688 38.0411 22.9688 39.2822V53.0616Z" />
<path d="M52.9688 32.3438H39.375C35.498 32.3438 32.3438 35.498 32.3438 39.375V52.9688C32.3438 56.8458 35.498 60 39.375 60H52.9688C56.8458 60 60 56.8458 60 52.9688V39.375C60 35.498 56.8458 32.3438 52.9688 32.3438ZM55.3125 52.9688C55.3125 54.2611 54.2611 55.3125 52.9688 55.3125H39.375C38.0827 55.3125 37.0312 54.2611 37.0312 52.9688V39.375C37.0312 38.0827 38.0827 37.0312 39.375 37.0312H52.9688C54.2611 37.0312 55.3125 38.0827 55.3125 39.375V52.9688Z" />
</symbol>

<symbol viewBox="0 0 100 71" id="aspas">
<title>aspas</title>
<path d="M0 42.7143H21.4285L7.14274 70.7143H28.5713L42.8571 42.7143V0.714264H0V42.7143Z" fill="white"/>
<path d="M57.1429 0.714264V42.7143H78.5715L64.2856 70.7143H85.7142L100 42.7143V0.714264H57.1429Z" fill="white"/>
</symbol>
</svg>